<?xml version="1.0" encoding="utf-8"?>
<!-- Generator: Adobe Illustrator 24.1.2, SVG Export Plug-In . SVG Version: 6.00 Build 0)  -->
<svg version="1.1" id="Layer_1" xmlns="http://www.w3.org/2000/svg" xmlns:xlink="http://www.w3.org/1999/xlink" x="0px" y="0px"
	 viewBox="0 0 94.8 96" style="enable-background:new 0 0 94.8 96;" xml:space="preserve">
<style type="text/css">
	.st0{fill:#FFFFFF;}
	.st1{fill:none;stroke:#FFFFFF;stroke-width:3.5;stroke-miterlimit:10;}
	.st2{fill:#FFFFFF;stroke:#FFFFFF;stroke-width:1.5;stroke-miterlimit:10;}
</style>
<g id="Layer_2_1_">
	<g id="Layer_1-2">
		<path class="st0" d="M46.8,3.5c24.2,0,43.2,19.3,43.2,43.9s-19,43.9-43.2,43.9c-11.6,0.1-22.8-4.4-30.9-12.7
			C7.8,70.2,3.4,59,3.5,47.4C3.4,35.8,7.9,24.6,16,16.3C24.1,8,35.2,3.4,46.8,3.5 M46.8,0C20.3,0,0,21,0,47.4
			C0,74,20.1,94.8,46.8,94.8s46.7-21.1,46.7-47.4S73.4,0,46.8,0z"/>
		<line class="st1" x1="93.6" y1="94.8" x2="58.7" y2="59.9"/>
		<path class="st2" d="M59.3,38c-2.7,0.3-5.3,1.3-7.5,2.9c0.2-0.5,0.4-0.9,0.5-1.4c0.9-2.7,0.3-5.7-1.8-7.7c-1.9-1.8-4.4-2.8-7-2.6
			c-2,0-4,0.7-5.6,2c-0.5,0.5-0.8,1.3-0.8,2c0,0.4,0,0.8,0.2,1.2c-1.4-0.2-2.6-0.2-3.4,0.6s-0.8,2-0.6,3.4c-0.4-0.2-0.8-0.2-1.2-0.3
			c-0.7,0-1.5,0.2-2,0.8c-1.3,1.6-2,3.6-2,5.6c-0.1,2.6,0.8,5.1,2.6,7c2,2,5,2.7,7.7,1.8c0.5-0.1,0.9-0.3,1.4-0.5
			c-1.6,2.2-2.6,4.8-2.9,7.5c-0.5,3,0.4,6,2.4,8.3c1.3,1.3,3.1,2,5,1.8c2.3-0.4,4.5-1.5,6.1-3.3l0.7-0.7l-0.8-0.7c0,0-0.4-0.4-1.1-1
			c0.8,0,1.7,0,2.5-0.2c2.5-0.6,4.7-1.9,6.6-3.7l7.2,7.2l1.4-1.4l-7.2-7.2c1.7-1.8,3-4,3.6-6.4c0.2-0.9,0.3-1.7,0.3-2.6
			c0.6,0.6,1,1,1,1.1l0.7,0.8l0.7-0.7c1.8-1.6,2.9-3.7,3.3-6.1c0.2-1.9-0.5-3.7-1.8-5.1C65.2,38.5,62.2,37.6,59.3,38z M43.6,48.6
			h-0.2c-1.6,0.4-3.5,0.4-4.3-0.3c-0.2-0.2-0.3-0.4-0.5-0.6c0.7,0.1,1.3,0.1,2,0.1c1.1-0.1,2.2,0.1,3.2,0.6L43.6,48.6L43.6,48.6z
			 M46.4,39.9c0.2,0.1,0.4,0.3,0.6,0.5c0.7,0.7,0.7,2.7,0.3,4.3c0,0.1,0,0.1,0,0.2l-0.3,0.3c-0.5-1-0.7-2.1-0.6-3.2
			C46.5,41.3,46.5,40.6,46.4,39.9L46.4,39.9z M38.9,33.2c0-0.2,0.1-0.4,0.2-0.6c1.2-0.9,2.8-1.4,4.3-1.4c2.1-0.1,4.1,0.6,5.6,2
			c1.5,1.5,2,3.8,1.2,5.8c-0.2,0.7-0.5,1.4-0.8,2.1c-0.1-0.8-0.5-1.6-1-2.2c-1.1-0.9-2.4-1.5-3.8-1.6c-1.4-0.1-2.7-0.7-3.8-1.5
			C39.2,34.5,38.9,33.5,38.9,33.2L38.9,33.2z M35.3,36.5c0.4-0.4,2.3,0,3.7,0.3c0.2,0.2,0.4,0.4,0.6,0.6c1.3,1,2.8,1.7,4.5,1.9
			c0.4,0.8,0.6,1.7,0.5,2.6c-0.2,1.6,0.2,3.3,1.1,4.6l-0.4,0.4c-1.4-0.9-3-1.3-4.6-1.1c-0.9,0.1-1.8,0-2.6-0.4
			c-0.2-1.6-0.8-3.2-1.9-4.5c-0.2-0.2-0.4-0.4-0.6-0.6C35.3,38.8,34.9,36.9,35.3,36.5L35.3,36.5z M32,50.3c-1.4-1.5-2.2-3.5-2.1-5.6
			c0-1.6,0.5-3.1,1.4-4.3c0.1-0.1,0.3-0.2,0.5-0.2c0.3,0,1.3,0.2,2.7,2c0.8,1.1,1.3,2.4,1.5,3.7c0.1,1.4,0.7,2.7,1.6,3.8
			c0.6,0.5,1.4,0.9,2.2,1c-0.7,0.3-1.4,0.6-2.1,0.8C35.8,52.3,33.5,51.8,32,50.3z M44,68.6c-1.3,0.2-2.6-0.3-3.5-1.2
			c-1.6-1.8-2.3-4.3-1.9-6.7c0.3-2.4,1.2-4.7,2.6-6.6c0.2,5.4,5,10.6,6.9,12.5C47.1,67.6,45.6,68.3,44,68.6L44,68.6z M57.6,58.8
			c-1.7,1.8-3.9,3.2-6.3,3.8c-1.3,0.3-2.7,0.2-4-0.2c-0.4-0.5-0.9-1.1-1.3-1.7c-3.1-4.5-2.9-7.7-2.2-9.6l2.4-2.4l6.7,6.7l0,0
			l1.3-1.4l0,0l-6.7-6.7L50,45c3.9-1.5,8.4,1.1,11.3,3.5C62,50.9,61.9,54.6,57.6,58.8L57.6,58.8z M67.4,45.3c-0.3,1.6-1,3-2.1,4.2
			c-1.9-1.9-7-6.7-12.5-6.9c2-1.4,4.2-2.3,6.6-2.6c2.4-0.4,4.8,0.3,6.7,1.9C67,42.7,67.5,44,67.4,45.3L67.4,45.3z"/>
	</g>
</g>
</svg>
