<?xml version="1.0" encoding="utf-8"?>
<!-- Generator: Adobe Illustrator 24.1.2, SVG Export Plug-In . SVG Version: 6.00 Build 0)  -->
<svg version="1.1" id="Layer_1" xmlns="http://www.w3.org/2000/svg" xmlns:xlink="http://www.w3.org/1999/xlink" x="0px" y="0px"
	 viewBox="0 0 94.8 96" style="enable-background:new 0 0 94.8 96;" xml:space="preserve">
<style type="text/css">
	.st0{fill:#FFFFFF;}
	.st1{fill:none;stroke:#FFFFFF;stroke-width:3.5;stroke-miterlimit:10;}
	.st2{fill:#FFFFFF;stroke:#FFFFFF;stroke-miterlimit:10;}
</style>
<g id="Layer_2_1_">
	<g id="Layer_1-2">
		<path class="st0" d="M46.8,3.5c24.2,0,43.2,19.3,43.2,43.9s-19,43.9-43.2,43.9c-11.6,0.1-22.8-4.4-30.9-12.7
			C7.8,70.2,3.4,59,3.5,47.4C3.4,35.8,7.9,24.6,16,16.3C24.1,8,35.2,3.4,46.8,3.5 M46.8,0C20.3,0,0,21,0,47.4
			C0,74,20.1,94.8,46.8,94.8s46.7-21.1,46.7-47.4S73.4,0,46.8,0z"/>
		<line class="st1" x1="93.6" y1="94.8" x2="58.7" y2="59.9"/>
		<path class="st2" d="M49.8,70.7c0.5,0.5,1.3,0.5,1.8,0l1.8-1.8c2.4-2.4,3.6-5.8,3.3-9.2l2.1,2.1c0.5,0.5,1.3,0.4,1.8-0.1
			c0.4-0.5,0.4-1.2,0-1.7l-2.1-2.1c3.4,0.4,6.8-0.8,9.2-3.3l1.8-1.8c0.5-0.5,0.5-1.3,0-1.8c-3-3-7.4-4.1-11.4-2.8
			c1.3-3.9,0.3-8.3-2.6-11.2L45.3,26.9c-3-3-7.7-3-10.7,0c-0.7,0.7-1.2,1.5-1.6,2.3c-1.1,0.6-2,1.3-2.9,2.1
			c-0.9,0.8-1.6,1.8-2.1,2.9c-3.8,1.7-5.6,6.2-3.9,10c0.4,0.9,0.9,1.6,1.6,2.3l10,10c3,3,7.3,4,11.3,2.7
			C45.8,63.3,46.8,67.7,49.8,70.7z M66.7,52l-0.8,0.8c-3.1,3.1-8,3.5-11.5,0.8l0.8-0.8C58.3,49.7,63.2,49.4,66.7,52z M53.6,38.8
			c3.3,3.5,3.2,8.9-0.3,12.3c-3.9,3.9-7.5,4.9-11.6,0.9c-2.4-2.4-1.2-5,2.3-9.6c2.2-2.7,3.4-6,3.5-9.5L53.6,38.8z M41.1,42
			c-1.8,1.4-3.8,2.5-5.8,3.5l-2.1-2.1c4.5-0.9,8-4.4,8.9-8.9l2.2,2.2l0,0C43.6,38.6,42.5,40.3,41.1,42L41.1,42L41.1,42z M43.5,28.6
			l0.9,0.9c0.6,1.3,0.9,2.8,0.7,4.3l-4.3-4.3c-1-1-2.4-1.5-3.8-1.5C39,26.7,41.7,26.9,43.5,28.6z M39,31.3c0.9,0.9,0.9,2.4,0.3,3.9
			c-1.2-1.7-3.5-2-5.2-0.8c-0.2,0.1-0.3,0.3-0.5,0.4c-0.5,0.5-0.5,1.3,0,1.8c0.5,0.5,1.3,0.5,1.8,0c0.5-0.5,1.3-0.5,1.8,0
			c0.5,0.5,0.5,1.3,0,1.8c0,0,0,0,0,0c-2.4,2.4-5.7,3.2-7.1,1.8s-0.6-4.7,1.8-7.1S37.5,29.9,39,31.3z M26.8,38.3
			c-0.1,1.4,0.5,2.8,1.5,3.8l4.2,4.2c-1.5,0.1-3-0.1-4.3-0.8l-0.7-0.8C25.7,43,25.4,40.3,26.8,38.3z M37.5,54.7l-6-6
			c2.5,0,4.9-0.7,7-2c0,0.1,0,0.1-0.1,0.2c-0.9,2.4-0.2,5,1.7,6.8c1.6,1.7,3.6,2.8,5.9,3.2C42.9,57.8,39.7,56.9,37.5,54.7z
			 M51.6,56.4l0.8-0.8c2.6,3.5,2.3,8.4-0.8,11.5l-0.8,0.8C48.2,64.4,48.5,59.5,51.6,56.4z"/>
	</g>
</g>
</svg>
