<?xml version="1.0" encoding="utf-8"?>
<!-- Generator: Adobe Illustrator 24.1.2, SVG Export Plug-In . SVG Version: 6.00 Build 0)  -->
<svg version="1.1" id="Layer_1" xmlns="http://www.w3.org/2000/svg" xmlns:xlink="http://www.w3.org/1999/xlink" x="0px" y="0px"
	 viewBox="0 0 94.8 96" style="enable-background:new 0 0 94.8 96;" xml:space="preserve">
<style type="text/css">
	.st0{fill:#FFFFFF;}
	.st1{fill:none;stroke:#FFFFFF;stroke-width:3.5;stroke-miterlimit:10;}
</style>
<g id="Layer_2_1_">
	<g id="Layer_1-2">
		<path class="st0" d="M46.8,3.5c24.2,0,43.2,19.3,43.2,43.9s-19,43.9-43.2,43.9c-11.6,0.1-22.8-4.4-30.9-12.7
			C7.8,70.2,3.4,59,3.5,47.4C3.4,35.8,7.9,24.6,16,16.3C24.1,8,35.2,3.4,46.8,3.5 M46.8,0C20.3,0,0,21,0,47.4
			C0,74,20.1,94.8,46.8,94.8s46.7-21.1,46.7-47.4S73.4,0,46.8,0z"/>
		<path class="st1" d="M52.5,63c-13.9-13.9-4.2-31.5-4.2-31.5L59,42.2c4.8,4.8,4.8,12.6,0,17.4l0,0c-4.8,4.8-12.6,4.8-17.5,0
			L30.9,49c0,0,7.8-4.1,14.5-2.9"/>
		<path class="st1" d="M38,46.6c-3-3-1.5-9.4-1.5-9.4s6.4-1.5,9.4,1.5"/>
		<line class="st1" x1="93.6" y1="94.8" x2="58.7" y2="59.9"/>
		<path class="st1" d="M76.3,63c0,5-4.4,9-4.4,9s-4.4-4-4.4-9s4.4-18.7,4.4-18.7S76.3,58.1,76.3,63z"/>
	</g>
</g>
</svg>
