<?xml version="1.0" encoding="utf-8"?>
<!-- Generator: Adobe Illustrator 24.1.2, SVG Export Plug-In . SVG Version: 6.00 Build 0)  -->
<svg version="1.1" id="Layer_1" xmlns="http://www.w3.org/2000/svg" xmlns:xlink="http://www.w3.org/1999/xlink" x="0px" y="0px"
	 viewBox="0 0 419.2 96" style="enable-background:new 0 0 419.2 96;" xml:space="preserve">
<style type="text/css">
	.st0{fill:#FFFFFF;}
	.st1{fill:none;stroke:#FFFFFF;stroke-width:3.5;stroke-miterlimit:10;}
</style>
<path class="st0" d="M136.4,8c-2.2-1-4.6-1.5-7-1.5c-8.8,0-13.4,6.2-13.4,14.5v15.7h23.3v3.6h-23.2v53.2H112V40.3h-10.8v-3.6H112V21
	c0-10.8,6.1-18.3,17.3-18.3c3,0,5.9,0.6,8.6,1.9L136.4,8z"/>
<path class="st0" d="M153.8,81.8c0,5.6,3.6,9.2,9.2,9.2c2.4,0,4.7-0.7,6.6-2.1l1.3,3.4c-2.5,1.7-5.4,2.6-8.4,2.6
	c-7.7,0-12.8-5.2-12.8-12.9v-78h4.1V81.8z"/>
<path class="st0" d="M208.3,35.6c17,0,29.7,12.3,29.7,29.4s-12.6,29.7-29.7,29.7S178.6,82,178.6,65S191.3,35.6,208.3,35.6z
	 M208.3,91.1c14.9,0,25.7-11.3,25.7-26.1s-11-25.7-25.7-25.7s-25.6,11-25.6,25.7S193.4,91.1,208.3,91.1z"/>
<path class="st0" d="M259.7,69v24.6h-4V36.7h4v17.3c4.4-10.5,13.3-17.7,24.9-17.7c1.3,0,2.6,0.1,4,0.3l-0.7,3.7
	c-1.1-0.1-2.3-0.2-3.4-0.1C268.5,40.3,259.7,54.2,259.7,69z"/>
<path class="st0" d="M308.7,19.4c-0.1,2.1-1.9,3.6-3.9,3.5c-1.9-0.1-3.4-1.6-3.5-3.5c0.1-2.1,1.9-3.6,3.9-3.5
	C307.1,16,308.6,17.5,308.7,19.4z M307.1,36.7v56.8H303V36.7L307.1,36.7z"/>
<path class="st0" d="M367.3,51.7c-1.7-9-9.6-12.7-18.1-12.7c-7.7,0-16.3,3.3-16.3,12.2c0,6.9,5.6,9,11.4,10.4l13.7,3
	c7.8,1.6,14.4,4.9,14.4,13.8c0,11.9-11.2,16.3-21.4,16.3c-11.1,0-22.6-4.7-24.2-16.9l3.8-1c0.9,10.2,11.4,14.4,20.5,14.4
	c8,0,17.2-3.3,17.2-12.7c0-7-5.6-9.3-11.5-10.6l-14.2-3.1c-7.3-1.7-13.9-4.9-13.9-13.4c0-11.3,10.6-15.9,20.5-15.9
	s19.2,4.7,21.9,14.9L367.3,51.7z"/>
<path class="st0" d="M417.1,40.3h-21.8v37.8c0,7.4,4.4,12.8,12.1,12.8c3.7-0.1,7.3-1.5,10-4.1l1.8,3.2c-3.3,3-7.6,4.6-12,4.7
	c-10,0-15.9-6.8-15.9-16.5V40.3h-12.5v-3.6h12.5V15.6h4.1v21.2h21.8L417.1,40.3z"/>
<path class="st0" d="M46.8,3.5c24.2,0,43.2,19.3,43.2,43.9s-19,43.9-43.2,43.9c-11.6,0.1-22.8-4.4-30.9-12.7
	C7.8,70.2,3.4,59,3.5,47.4C3.4,35.8,7.9,24.6,16,16.3C24.1,8,35.2,3.4,46.8,3.5 M46.8,0C20.3,0,0,21,0,47.4
	C0,74,20.1,94.8,46.8,94.8s46.7-21.1,46.7-47.4S73.4,0,46.8,0z"/>
<path class="st1" d="M52.5,63c-13.9-13.9-4.2-31.5-4.2-31.5L59,42.2c4.8,4.8,4.8,12.6,0,17.4l0,0c-4.8,4.8-12.6,4.8-17.5,0L30.9,49
	c0,0,7.8-4.1,14.5-2.9"/>
<path class="st1" d="M38,46.6c-3-3-1.5-9.4-1.5-9.4s6.4-1.5,9.4,1.5"/>
<line class="st1" x1="93.6" y1="94.8" x2="58.7" y2="59.9"/>
<path class="st1" d="M76.3,63c0,5-4.4,9-4.4,9s-4.4-4-4.4-9s4.4-9,4.4-9S76.3,58.1,76.3,63z"/>
</svg>
